<svg
   xmlns:dc="http://purl.org/dc/elements/1.1/"
   xmlns:cc="http://creativecommons.org/ns#"
   xmlns:rdf="http://www.w3.org/1999/02/22-rdf-syntax-ns#"
   xmlns:svg="http://www.w3.org/2000/svg"
   xmlns="http://www.w3.org/2000/svg"
   version="1.1"
   id="svg2"
   viewBox="0 0 208.5965 89.231786"
   height="25.183193mm"
   width="58.870567mm">
  <defs
     id="defs4" />
  <metadata
     id="metadata7">
    <rdf:RDF>
      <cc:Work
         rdf:about="">
        <dc:format>image/svg+xml</dc:format>
        <dc:type
           rdf:resource="http://purl.org/dc/dcmitype/StillImage" />
        <dc:title></dc:title>
      </cc:Work>
    </rdf:RDF>
  </metadata>
  <g
     transform="translate(-222.63267,-363.64792)"
     id="layer1">
    <g
       id="text4136"
       style="font-style:normal;font-weight:normal;font-size:40px;line-height:125%;font-family:sans-serif;letter-spacing:0px;word-spacing:0px;fill:#000000;fill-opacity:1;stroke:none;stroke-width:1px;stroke-linecap:butt;stroke-linejoin:miter;stroke-opacity:1">
      <path
         id="path4147"
         style="font-style:normal;font-variant:normal;font-weight:normal;font-stretch:normal;font-size:90px;font-family:'Space Mono';-inkscape-font-specification:'Space Mono'"
         d="m 230.10285,406.48792 q 0.27,6.66 4.14,10.71 3.87,4.05 10.8,4.05 3.15,0 5.49,-0.72 2.34,-0.72 3.96,-1.98 1.71,-1.26 2.7,-2.88 1.08,-1.71 1.71,-3.6 l 6.66,1.8 q -1.89,6.21 -7.02,10.17 -5.04,3.87 -13.68,3.87 -4.77,0 -8.82,-1.62 -3.96,-1.71 -6.84,-4.77 -2.88,-3.06 -4.5,-7.29 -1.62,-4.23 -1.62,-9.36 l 0,-2.16 q 0,-4.68 1.62,-8.73 1.71,-4.05 4.68,-6.93 2.97,-2.97 6.93,-4.59 4.05,-1.71 8.73,-1.71 5.49,0 9.45,2.07 4.05,1.98 6.57,4.95 2.61,2.97 3.78,6.48 1.26,3.51 1.26,6.48 l 0,5.76 -36,0 z m 14.94,-19.08 q -2.97,0 -5.58,0.99 -2.52,0.9 -4.5,2.61 -1.89,1.71 -3.15,4.05 -1.17,2.25 -1.53,4.95 l 28.8,0 q -0.18,-2.88 -1.44,-5.22 -1.17,-2.34 -3.15,-3.96 -1.89,-1.62 -4.41,-2.52 -2.43,-0.9 -5.04,-0.9 z" />
      <path
         id="path4149"
         style="font-style:normal;font-variant:normal;font-weight:normal;font-stretch:normal;font-size:90px;font-family:'Space Mono';-inkscape-font-specification:'Space Mono'"
         d="m 279.99238,420.16792 16.2,0 0,-50.04 -15.66,0 0,-6.48 22.68,0 0,56.52 16.2,0 0,6.48 -39.42,0 0,-6.48 z" />
      <path
         id="path4151"
         style="font-style:normal;font-variant:normal;font-weight:normal;font-stretch:normal;font-size:90px;font-family:'Space Mono';-inkscape-font-specification:'Space Mono'"
         d="m 346.53192,400.54792 1.53,0 17.01,-18.54 8.64,0 0,0.54 -18.54,20.43 0,1.62 20.7,21.51 0,0.54 -8.64,0 -18.99,-19.62 -1.71,0 0,19.62 -7.02,0 0,-63 7.02,0 0,36.9 z" />
      <path
         id="path4153"
         style="font-style:normal;font-variant:normal;font-weight:normal;font-stretch:normal;font-size:90px;font-family:'Space Mono';-inkscape-font-specification:'Space Mono'"
         d="m 395.16145,406.48792 q 0.27,6.66 4.14,10.71 3.87,4.05 10.8,4.05 3.15,0 5.49,-0.72 2.34,-0.72 3.96,-1.98 1.71,-1.26 2.7,-2.88 1.08,-1.71 1.71,-3.6 l 6.66,1.8 q -1.89,6.21 -7.02,10.17 -5.04,3.87 -13.68,3.87 -4.77,0 -8.82,-1.62 -3.96,-1.71 -6.84,-4.77 -2.88,-3.06 -4.5,-7.29 -1.62,-4.23 -1.62,-9.36 l 0,-2.16 q 0,-4.68 1.62,-8.73 1.71,-4.05 4.68,-6.93 2.97,-2.97 6.93,-4.59 4.05,-1.71 8.73,-1.71 5.49,0 9.45,2.07 4.05,1.98 6.57,4.95 2.61,2.97 3.78,6.48 1.26,3.51 1.26,6.48 l 0,5.76 -36,0 z m 14.94,-19.08 q -2.97,0 -5.58,0.99 -2.52,0.9 -4.5,2.61 -1.89,1.71 -3.15,4.05 -1.17,2.25 -1.53,4.95 l 28.8,0 q -0.18,-2.88 -1.44,-5.22 -1.17,-2.34 -3.15,-3.96 -1.89,-1.62 -4.41,-2.52 -2.43,-0.9 -5.04,-0.9 z" />
    </g>
    <path
       id="path4140"
       d="m 431.22917,448.91789 -208.5965,0"
       style="fill:none;fill-rule:evenodd;stroke:#000000;stroke-width:7.92362595;stroke-linecap:butt;stroke-linejoin:miter;stroke-miterlimit:4;stroke-dasharray:none;stroke-opacity:1" />
  </g>
</svg>
